<mxfile host="app.diagrams.net" modified="2022-09-29T14:43:47.576Z" agent="5.0 (X11; Linux x86_64) AppleWebKit/537.36 (KHTML, like Gecko) Chrome/105.0.0.0 Safari/537.36" etag="bknc4fhAn5G7dzuE-Z-D" version="20.3.7" type="github">
  <diagram id="C5RBs43oDa-KdzZeNtuy" name="Page-1">
    <mxGraphModel dx="1222" dy="2327" grid="1" gridSize="10" guides="1" tooltips="1" connect="1" arrows="1" fold="1" page="1" pageScale="1" pageWidth="827" pageHeight="1169" math="0" shadow="0">
      <root>
        <mxCell id="WIyWlLk6GJQsqaUBKTNV-0" />
        <mxCell id="WIyWlLk6GJQsqaUBKTNV-1" parent="WIyWlLk6GJQsqaUBKTNV-0" />
        <mxCell id="idxCcSaXw2SYK3ETWPWx-4" value="&lt;p&gt;StateMachine&lt;/p&gt;" style="rounded=0;whiteSpace=wrap;html=1;align=left;horizontal=1;labelPosition=center;verticalLabelPosition=middle;verticalAlign=top;" vertex="1" parent="WIyWlLk6GJQsqaUBKTNV-1">
          <mxGeometry x="54" y="-1110" width="720" height="250" as="geometry" />
        </mxCell>
        <mxCell id="idxCcSaXw2SYK3ETWPWx-5" value="SM" style="swimlane;fontStyle=1;align=center;verticalAlign=top;childLayout=stackLayout;horizontal=1;startSize=26;horizontalStack=0;resizeParent=1;resizeParentMax=0;resizeLast=0;collapsible=1;marginBottom=0;" vertex="1" parent="WIyWlLk6GJQsqaUBKTNV-1">
          <mxGeometry x="94" y="-1040" width="160" height="160" as="geometry" />
        </mxCell>
        <mxCell id="idxCcSaXw2SYK3ETWPWx-6" value="+ root: SMnode*" style="text;strokeColor=none;fillColor=none;align=left;verticalAlign=top;spacingLeft=4;spacingRight=4;overflow=hidden;rotatable=0;points=[[0,0.5],[1,0.5]];portConstraint=eastwest;" vertex="1" parent="idxCcSaXw2SYK3ETWPWx-5">
          <mxGeometry y="26" width="160" height="26" as="geometry" />
        </mxCell>
        <mxCell id="idxCcSaXw2SYK3ETWPWx-7" value="" style="line;strokeWidth=1;fillColor=none;align=left;verticalAlign=middle;spacingTop=-1;spacingLeft=3;spacingRight=3;rotatable=0;labelPosition=right;points=[];portConstraint=eastwest;strokeColor=inherit;" vertex="1" parent="idxCcSaXw2SYK3ETWPWx-5">
          <mxGeometry y="52" width="160" height="8" as="geometry" />
        </mxCell>
        <mxCell id="idxCcSaXw2SYK3ETWPWx-8" value="+ SM(REParser)&#xa;+ print() : file.DOT&#xa;p removeLongSeq(): void&#xa;p removeEpsSeq(): void&#xa;p compressFinal(): void &#xa;- makeRegular(): void ??? " style="text;strokeColor=none;fillColor=none;align=left;verticalAlign=top;spacingLeft=4;spacingRight=4;overflow=hidden;rotatable=0;points=[[0,0.5],[1,0.5]];portConstraint=eastwest;" vertex="1" parent="idxCcSaXw2SYK3ETWPWx-5">
          <mxGeometry y="60" width="160" height="100" as="geometry" />
        </mxCell>
        <mxCell id="idxCcSaXw2SYK3ETWPWx-10" value="DSM" style="swimlane;fontStyle=1;align=center;verticalAlign=top;childLayout=stackLayout;horizontal=1;startSize=26;horizontalStack=0;resizeParent=1;resizeParentMax=0;resizeLast=0;collapsible=1;marginBottom=0;" vertex="1" parent="WIyWlLk6GJQsqaUBKTNV-1">
          <mxGeometry x="334" y="-1040" width="186" height="90" as="geometry" />
        </mxCell>
        <mxCell id="idxCcSaXw2SYK3ETWPWx-11" value="+ alphabet: string or set&lt;string&gt;" style="text;strokeColor=none;fillColor=none;align=left;verticalAlign=top;spacingLeft=4;spacingRight=4;overflow=hidden;rotatable=0;points=[[0,0.5],[1,0.5]];portConstraint=eastwest;" vertex="1" parent="idxCcSaXw2SYK3ETWPWx-10">
          <mxGeometry y="26" width="186" height="26" as="geometry" />
        </mxCell>
        <mxCell id="idxCcSaXw2SYK3ETWPWx-12" value="" style="line;strokeWidth=1;fillColor=none;align=left;verticalAlign=middle;spacingTop=-1;spacingLeft=3;spacingRight=3;rotatable=0;labelPosition=right;points=[];portConstraint=eastwest;strokeColor=inherit;" vertex="1" parent="idxCcSaXw2SYK3ETWPWx-10">
          <mxGeometry y="52" width="186" height="8" as="geometry" />
        </mxCell>
        <mxCell id="idxCcSaXw2SYK3ETWPWx-13" value="+ DSM(SM, string or set&lt;string&gt;)" style="text;strokeColor=none;fillColor=none;align=left;verticalAlign=top;spacingLeft=4;spacingRight=4;overflow=hidden;rotatable=0;points=[[0,0.5],[1,0.5]];portConstraint=eastwest;" vertex="1" parent="idxCcSaXw2SYK3ETWPWx-10">
          <mxGeometry y="60" width="186" height="30" as="geometry" />
        </mxCell>
        <mxCell id="idxCcSaXw2SYK3ETWPWx-18" style="edgeStyle=orthogonalEdgeStyle;rounded=0;orthogonalLoop=1;jettySize=auto;html=1;entryX=1;entryY=0.5;entryDx=0;entryDy=0;" edge="1" parent="WIyWlLk6GJQsqaUBKTNV-1" source="idxCcSaXw2SYK3ETWPWx-14" target="idxCcSaXw2SYK3ETWPWx-11">
          <mxGeometry relative="1" as="geometry" />
        </mxCell>
        <mxCell id="idxCcSaXw2SYK3ETWPWx-14" value="FDSM" style="swimlane;fontStyle=1;align=center;verticalAlign=top;childLayout=stackLayout;horizontal=1;startSize=26;horizontalStack=0;resizeParent=1;resizeParentMax=0;resizeLast=0;collapsible=1;marginBottom=0;" vertex="1" parent="WIyWlLk6GJQsqaUBKTNV-1">
          <mxGeometry x="574" y="-1044" width="160" height="110" as="geometry" />
        </mxCell>
        <mxCell id="idxCcSaXw2SYK3ETWPWx-15" value="+ stock: SMnode*" style="text;strokeColor=none;fillColor=none;align=left;verticalAlign=top;spacingLeft=4;spacingRight=4;overflow=hidden;rotatable=0;points=[[0,0.5],[1,0.5]];portConstraint=eastwest;" vertex="1" parent="idxCcSaXw2SYK3ETWPWx-14">
          <mxGeometry y="26" width="160" height="26" as="geometry" />
        </mxCell>
        <mxCell id="idxCcSaXw2SYK3ETWPWx-16" value="" style="line;strokeWidth=1;fillColor=none;align=left;verticalAlign=middle;spacingTop=-1;spacingLeft=3;spacingRight=3;rotatable=0;labelPosition=right;points=[];portConstraint=eastwest;strokeColor=inherit;" vertex="1" parent="idxCcSaXw2SYK3ETWPWx-14">
          <mxGeometry y="52" width="160" height="8" as="geometry" />
        </mxCell>
        <mxCell id="idxCcSaXw2SYK3ETWPWx-17" value="+ FDSM(DSM)&#xa;+ inverse(): void&#xa;+ minimise(): void" style="text;strokeColor=none;fillColor=none;align=left;verticalAlign=top;spacingLeft=4;spacingRight=4;overflow=hidden;rotatable=0;points=[[0,0.5],[1,0.5]];portConstraint=eastwest;" vertex="1" parent="idxCcSaXw2SYK3ETWPWx-14">
          <mxGeometry y="60" width="160" height="50" as="geometry" />
        </mxCell>
        <mxCell id="idxCcSaXw2SYK3ETWPWx-19" style="edgeStyle=orthogonalEdgeStyle;rounded=0;orthogonalLoop=1;jettySize=auto;html=1;" edge="1" parent="WIyWlLk6GJQsqaUBKTNV-1" source="idxCcSaXw2SYK3ETWPWx-11" target="idxCcSaXw2SYK3ETWPWx-6">
          <mxGeometry relative="1" as="geometry" />
        </mxCell>
        <mxCell id="idxCcSaXw2SYK3ETWPWx-20" value="&lt;p&gt;RegularExpression&lt;/p&gt;" style="rounded=0;whiteSpace=wrap;html=1;align=left;horizontal=1;labelPosition=center;verticalLabelPosition=middle;verticalAlign=top;" vertex="1" parent="WIyWlLk6GJQsqaUBKTNV-1">
          <mxGeometry x="810" y="-1110" width="690" height="250" as="geometry" />
        </mxCell>
        <mxCell id="idxCcSaXw2SYK3ETWPWx-22" value="RE" style="swimlane;fontStyle=1;align=center;verticalAlign=top;childLayout=stackLayout;horizontal=1;startSize=26;horizontalStack=0;resizeParent=1;resizeParentMax=0;resizeLast=0;collapsible=1;marginBottom=0;" vertex="1" parent="WIyWlLk6GJQsqaUBKTNV-1">
          <mxGeometry x="827" y="-1040" width="160" height="100" as="geometry" />
        </mxCell>
        <mxCell id="idxCcSaXw2SYK3ETWPWx-23" value="+ expression: string" style="text;strokeColor=none;fillColor=none;align=left;verticalAlign=top;spacingLeft=4;spacingRight=4;overflow=hidden;rotatable=0;points=[[0,0.5],[1,0.5]];portConstraint=eastwest;" vertex="1" parent="idxCcSaXw2SYK3ETWPWx-22">
          <mxGeometry y="26" width="160" height="26" as="geometry" />
        </mxCell>
        <mxCell id="idxCcSaXw2SYK3ETWPWx-24" value="" style="line;strokeWidth=1;fillColor=none;align=left;verticalAlign=middle;spacingTop=-1;spacingLeft=3;spacingRight=3;rotatable=0;labelPosition=right;points=[];portConstraint=eastwest;strokeColor=inherit;" vertex="1" parent="idxCcSaXw2SYK3ETWPWx-22">
          <mxGeometry y="52" width="160" height="8" as="geometry" />
        </mxCell>
        <mxCell id="idxCcSaXw2SYK3ETWPWx-25" value="+ RE(string)&#xa;+ RE(SM)&#xa;" style="text;strokeColor=none;fillColor=none;align=left;verticalAlign=top;spacingLeft=4;spacingRight=4;overflow=hidden;rotatable=0;points=[[0,0.5],[1,0.5]];portConstraint=eastwest;" vertex="1" parent="idxCcSaXw2SYK3ETWPWx-22">
          <mxGeometry y="60" width="160" height="40" as="geometry" />
        </mxCell>
        <mxCell id="idxCcSaXw2SYK3ETWPWx-26" value="REParser" style="swimlane;fontStyle=1;align=center;verticalAlign=top;childLayout=stackLayout;horizontal=1;startSize=26;horizontalStack=0;resizeParent=1;resizeParentMax=0;resizeLast=0;collapsible=1;marginBottom=0;" vertex="1" parent="WIyWlLk6GJQsqaUBKTNV-1">
          <mxGeometry x="1050" y="-1040" width="160" height="100" as="geometry" />
        </mxCell>
        <mxCell id="idxCcSaXw2SYK3ETWPWx-27" value="+ root: re::node*" style="text;strokeColor=none;fillColor=none;align=left;verticalAlign=top;spacingLeft=4;spacingRight=4;overflow=hidden;rotatable=0;points=[[0,0.5],[1,0.5]];portConstraint=eastwest;" vertex="1" parent="idxCcSaXw2SYK3ETWPWx-26">
          <mxGeometry y="26" width="160" height="26" as="geometry" />
        </mxCell>
        <mxCell id="idxCcSaXw2SYK3ETWPWx-28" value="" style="line;strokeWidth=1;fillColor=none;align=left;verticalAlign=middle;spacingTop=-1;spacingLeft=3;spacingRight=3;rotatable=0;labelPosition=right;points=[];portConstraint=eastwest;strokeColor=inherit;" vertex="1" parent="idxCcSaXw2SYK3ETWPWx-26">
          <mxGeometry y="52" width="160" height="8" as="geometry" />
        </mxCell>
        <mxCell id="idxCcSaXw2SYK3ETWPWx-29" value="+ REParser(RE)&#xa;d printDot() : file.DOT&#xa;" style="text;strokeColor=none;fillColor=none;align=left;verticalAlign=top;spacingLeft=4;spacingRight=4;overflow=hidden;rotatable=0;points=[[0,0.5],[1,0.5]];portConstraint=eastwest;" vertex="1" parent="idxCcSaXw2SYK3ETWPWx-26">
          <mxGeometry y="60" width="160" height="40" as="geometry" />
        </mxCell>
        <mxCell id="idxCcSaXw2SYK3ETWPWx-31" value="&lt;p&gt;SMGraph&lt;/p&gt;&lt;p&gt;&lt;br&gt;&lt;/p&gt;" style="rounded=0;whiteSpace=wrap;html=1;align=left;horizontal=1;labelPosition=center;verticalLabelPosition=middle;verticalAlign=top;" vertex="1" parent="WIyWlLk6GJQsqaUBKTNV-1">
          <mxGeometry x="55" y="-820" width="805" height="640" as="geometry" />
        </mxCell>
        <mxCell id="idxCcSaXw2SYK3ETWPWx-32" value="node" style="swimlane;fontStyle=1;align=center;verticalAlign=top;childLayout=stackLayout;horizontal=1;startSize=26;horizontalStack=0;resizeParent=1;resizeParentMax=0;resizeLast=0;collapsible=1;marginBottom=0;" vertex="1" parent="WIyWlLk6GJQsqaUBKTNV-1">
          <mxGeometry x="94" y="-780" width="160" height="88" as="geometry" />
        </mxCell>
        <mxCell id="idxCcSaXw2SYK3ETWPWx-33" value="+ parents : edgeSet&#xa;+ children : edgeSet&#xa;+ bool : final" style="text;strokeColor=none;fillColor=none;align=left;verticalAlign=top;spacingLeft=4;spacingRight=4;overflow=hidden;rotatable=0;points=[[0,0.5],[1,0.5]];portConstraint=eastwest;" vertex="1" parent="idxCcSaXw2SYK3ETWPWx-32">
          <mxGeometry y="26" width="160" height="54" as="geometry" />
        </mxCell>
        <mxCell id="idxCcSaXw2SYK3ETWPWx-34" value="" style="line;strokeWidth=1;fillColor=none;align=left;verticalAlign=middle;spacingTop=-1;spacingLeft=3;spacingRight=3;rotatable=0;labelPosition=right;points=[];portConstraint=eastwest;strokeColor=inherit;" vertex="1" parent="idxCcSaXw2SYK3ETWPWx-32">
          <mxGeometry y="80" width="160" height="8" as="geometry" />
        </mxCell>
        <mxCell id="idxCcSaXw2SYK3ETWPWx-36" value="edge" style="swimlane;fontStyle=1;align=center;verticalAlign=top;childLayout=stackLayout;horizontal=1;startSize=26;horizontalStack=0;resizeParent=1;resizeParentMax=0;resizeLast=0;collapsible=1;marginBottom=0;" vertex="1" parent="WIyWlLk6GJQsqaUBKTNV-1">
          <mxGeometry x="290" y="-780" width="160" height="120" as="geometry" />
        </mxCell>
        <mxCell id="idxCcSaXw2SYK3ETWPWx-37" value="+ from : node*&#xa;+ to : node*&#xa;+ sequence : string" style="text;strokeColor=none;fillColor=none;align=left;verticalAlign=top;spacingLeft=4;spacingRight=4;overflow=hidden;rotatable=0;points=[[0,0.5],[1,0.5]];portConstraint=eastwest;" vertex="1" parent="idxCcSaXw2SYK3ETWPWx-36">
          <mxGeometry y="26" width="160" height="54" as="geometry" />
        </mxCell>
        <mxCell id="idxCcSaXw2SYK3ETWPWx-38" value="" style="line;strokeWidth=1;fillColor=none;align=left;verticalAlign=middle;spacingTop=-1;spacingLeft=3;spacingRight=3;rotatable=0;labelPosition=right;points=[];portConstraint=eastwest;strokeColor=inherit;" vertex="1" parent="idxCcSaXw2SYK3ETWPWx-36">
          <mxGeometry y="80" width="160" height="10" as="geometry" />
        </mxCell>
        <mxCell id="idxCcSaXw2SYK3ETWPWx-61" value="??? operator == : bool" style="text;strokeColor=none;fillColor=none;align=left;verticalAlign=top;spacingLeft=4;spacingRight=4;overflow=hidden;rotatable=0;points=[[0,0.5],[1,0.5]];portConstraint=eastwest;" vertex="1" parent="idxCcSaXw2SYK3ETWPWx-36">
          <mxGeometry y="90" width="160" height="30" as="geometry" />
        </mxCell>
        <mxCell id="idxCcSaXw2SYK3ETWPWx-58" style="edgeStyle=orthogonalEdgeStyle;rounded=0;orthogonalLoop=1;jettySize=auto;html=1;entryX=0.5;entryY=1;entryDx=0;entryDy=0;" edge="1" parent="WIyWlLk6GJQsqaUBKTNV-1" source="idxCcSaXw2SYK3ETWPWx-40" target="idxCcSaXw2SYK3ETWPWx-54">
          <mxGeometry relative="1" as="geometry" />
        </mxCell>
        <mxCell id="idxCcSaXw2SYK3ETWPWx-40" value="edgeSet" style="swimlane;fontStyle=1;align=center;verticalAlign=top;childLayout=stackLayout;horizontal=1;startSize=26;horizontalStack=0;resizeParent=1;resizeParentMax=0;resizeLast=0;collapsible=1;marginBottom=0;" vertex="1" parent="WIyWlLk6GJQsqaUBKTNV-1">
          <mxGeometry x="275" y="-565" width="190" height="130" as="geometry" />
        </mxCell>
        <mxCell id="idxCcSaXw2SYK3ETWPWx-42" value="" style="line;strokeWidth=1;fillColor=none;align=left;verticalAlign=middle;spacingTop=-1;spacingLeft=3;spacingRight=3;rotatable=0;labelPosition=right;points=[];portConstraint=eastwest;strokeColor=inherit;" vertex="1" parent="idxCcSaXw2SYK3ETWPWx-40">
          <mxGeometry y="26" width="190" height="8" as="geometry" />
        </mxCell>
        <mxCell id="idxCcSaXw2SYK3ETWPWx-43" value="+ erase&lt;edge*&gt; : void&#xa;+ insert&lt;edge*&gt; : void&#xa;+ isIn&lt;edge*&gt; : bool&#xa;operator&lt; : bool&#xa;operator== : bool&#xa;+ clear() : void" style="text;strokeColor=none;fillColor=none;align=left;verticalAlign=top;spacingLeft=4;spacingRight=4;overflow=hidden;rotatable=0;points=[[0,0.5],[1,0.5]];portConstraint=eastwest;" vertex="1" parent="idxCcSaXw2SYK3ETWPWx-40">
          <mxGeometry y="34" width="190" height="96" as="geometry" />
        </mxCell>
        <mxCell id="idxCcSaXw2SYK3ETWPWx-53" style="edgeStyle=orthogonalEdgeStyle;rounded=0;orthogonalLoop=1;jettySize=auto;html=1;entryX=0.5;entryY=1;entryDx=0;entryDy=0;" edge="1" parent="WIyWlLk6GJQsqaUBKTNV-1" source="idxCcSaXw2SYK3ETWPWx-44" target="idxCcSaXw2SYK3ETWPWx-49">
          <mxGeometry relative="1" as="geometry" />
        </mxCell>
        <mxCell id="idxCcSaXw2SYK3ETWPWx-44" value="nodeSet" style="swimlane;fontStyle=1;align=center;verticalAlign=top;childLayout=stackLayout;horizontal=1;startSize=26;horizontalStack=0;resizeParent=1;resizeParentMax=0;resizeLast=0;collapsible=1;marginBottom=0;" vertex="1" parent="WIyWlLk6GJQsqaUBKTNV-1">
          <mxGeometry x="94" y="-570" width="160" height="120" as="geometry" />
        </mxCell>
        <mxCell id="idxCcSaXw2SYK3ETWPWx-46" value="" style="line;strokeWidth=1;fillColor=none;align=left;verticalAlign=middle;spacingTop=-1;spacingLeft=3;spacingRight=3;rotatable=0;labelPosition=right;points=[];portConstraint=eastwest;strokeColor=inherit;" vertex="1" parent="idxCcSaXw2SYK3ETWPWx-44">
          <mxGeometry y="26" width="160" height="8" as="geometry" />
        </mxCell>
        <mxCell id="idxCcSaXw2SYK3ETWPWx-47" value="+ erase&lt;node*&gt; : void&#xa;+ isIn&lt;node*&gt; : bool&#xa;+ operator&lt; : bool&#xa;+ operator== : bool&#xa;+ clear() : void&#xa;" style="text;strokeColor=none;fillColor=none;align=left;verticalAlign=top;spacingLeft=4;spacingRight=4;overflow=hidden;rotatable=0;points=[[0,0.5],[1,0.5]];portConstraint=eastwest;" vertex="1" parent="idxCcSaXw2SYK3ETWPWx-44">
          <mxGeometry y="34" width="160" height="86" as="geometry" />
        </mxCell>
        <mxCell id="idxCcSaXw2SYK3ETWPWx-49" value="set&lt;node*&gt;" style="swimlane;fontStyle=1;align=center;verticalAlign=top;childLayout=stackLayout;horizontal=1;startSize=26;horizontalStack=0;resizeParent=1;resizeParentMax=0;resizeLast=0;collapsible=1;marginBottom=0;" vertex="1" parent="WIyWlLk6GJQsqaUBKTNV-1">
          <mxGeometry x="94" y="-640" width="160" height="34" as="geometry" />
        </mxCell>
        <mxCell id="idxCcSaXw2SYK3ETWPWx-51" value="" style="line;strokeWidth=1;fillColor=none;align=left;verticalAlign=middle;spacingTop=-1;spacingLeft=3;spacingRight=3;rotatable=0;labelPosition=right;points=[];portConstraint=eastwest;strokeColor=inherit;" vertex="1" parent="idxCcSaXw2SYK3ETWPWx-49">
          <mxGeometry y="26" width="160" height="8" as="geometry" />
        </mxCell>
        <mxCell id="idxCcSaXw2SYK3ETWPWx-54" value="set&lt;edge*&gt;" style="swimlane;fontStyle=1;align=center;verticalAlign=top;childLayout=stackLayout;horizontal=1;startSize=26;horizontalStack=0;resizeParent=1;resizeParentMax=0;resizeLast=0;collapsible=1;marginBottom=0;" vertex="1" parent="WIyWlLk6GJQsqaUBKTNV-1">
          <mxGeometry x="290" y="-640" width="160" height="34" as="geometry" />
        </mxCell>
        <mxCell id="idxCcSaXw2SYK3ETWPWx-56" value="" style="line;strokeWidth=1;fillColor=none;align=left;verticalAlign=middle;spacingTop=-1;spacingLeft=3;spacingRight=3;rotatable=0;labelPosition=right;points=[];portConstraint=eastwest;strokeColor=inherit;" vertex="1" parent="idxCcSaXw2SYK3ETWPWx-54">
          <mxGeometry y="26" width="160" height="8" as="geometry" />
        </mxCell>
        <mxCell id="idxCcSaXw2SYK3ETWPWx-62" value="graphModify" style="swimlane;fontStyle=1;align=center;verticalAlign=top;childLayout=stackLayout;horizontal=1;startSize=26;horizontalStack=0;resizeParent=1;resizeParentMax=0;resizeLast=0;collapsible=1;marginBottom=0;" vertex="1" parent="WIyWlLk6GJQsqaUBKTNV-1">
          <mxGeometry x="500" y="-780" width="330" height="380" as="geometry" />
        </mxCell>
        <mxCell id="idxCcSaXw2SYK3ETWPWx-64" value="" style="line;strokeWidth=1;fillColor=none;align=left;verticalAlign=middle;spacingTop=-1;spacingLeft=3;spacingRight=3;rotatable=0;labelPosition=right;points=[];portConstraint=eastwest;strokeColor=inherit;" vertex="1" parent="idxCcSaXw2SYK3ETWPWx-62">
          <mxGeometry y="26" width="330" height="8" as="geometry" />
        </mxCell>
        <mxCell id="idxCcSaXw2SYK3ETWPWx-65" value="- dfsWithCoworker(node*, dfsCoworker&amp;) : dfsCoworker&amp;&#xa;- connectWithSeq(node*, node*, string) : node*&#xa;- connectWithParsedSeq(node*, node*, string) : node *&#xa;- concatenate(node*, node*) : node*&#xa;- kliniStar(node*) : node *&#xa;- unite(node*, node*) : node*&#xa;- make(string) : node*&#xa;&#xa;- makeRegular(node*) : void&#xa;- compress(node*) &quot;: void&#xa;&#xa;&#xa;+ make(re::node*) : node* " style="text;strokeColor=none;fillColor=none;align=left;verticalAlign=top;spacingLeft=4;spacingRight=4;overflow=hidden;rotatable=0;points=[[0,0.5],[1,0.5]];portConstraint=eastwest;" vertex="1" parent="idxCcSaXw2SYK3ETWPWx-62">
          <mxGeometry y="34" width="330" height="346" as="geometry" />
        </mxCell>
        <mxCell id="idxCcSaXw2SYK3ETWPWx-67" value="node" style="swimlane;fontStyle=1;align=center;verticalAlign=top;childLayout=stackLayout;horizontal=1;startSize=26;horizontalStack=0;resizeParent=1;resizeParentMax=0;resizeLast=0;collapsible=1;marginBottom=0;" vertex="1" parent="WIyWlLk6GJQsqaUBKTNV-1">
          <mxGeometry x="1250" y="-1040" width="160" height="98" as="geometry" />
        </mxCell>
        <mxCell id="idxCcSaXw2SYK3ETWPWx-68" value="+ parent : node*&#xa;+ lchild : node*&#xa;+ rchild : node*&#xa;+ sequence : string" style="text;strokeColor=none;fillColor=none;align=left;verticalAlign=top;spacingLeft=4;spacingRight=4;overflow=hidden;rotatable=0;points=[[0,0.5],[1,0.5]];portConstraint=eastwest;" vertex="1" parent="idxCcSaXw2SYK3ETWPWx-67">
          <mxGeometry y="26" width="160" height="64" as="geometry" />
        </mxCell>
        <mxCell id="idxCcSaXw2SYK3ETWPWx-69" value="" style="line;strokeWidth=1;fillColor=none;align=left;verticalAlign=middle;spacingTop=-1;spacingLeft=3;spacingRight=3;rotatable=0;labelPosition=right;points=[];portConstraint=eastwest;strokeColor=inherit;" vertex="1" parent="idxCcSaXw2SYK3ETWPWx-67">
          <mxGeometry y="90" width="160" height="8" as="geometry" />
        </mxCell>
      </root>
    </mxGraphModel>
  </diagram>
</mxfile>
